<mxfile host="app.diagrams.net" modified="2023-11-21T21:23:14.680Z" agent="Mozilla/5.0 (Macintosh; Intel Mac OS X 10_15_7) AppleWebKit/537.36 (KHTML, like Gecko) Chrome/119.0.0.0 Safari/537.36" etag="JR1hcAcm5bTOotWs73-U" version="21.3.0" type="device">
  <diagram id="R2lEEEUBdFMjLlhIrx00" name="Page-1">
    <mxGraphModel dx="2074" dy="1314" grid="1" gridSize="10" guides="1" tooltips="1" connect="1" arrows="1" fold="1" page="1" pageScale="1" pageWidth="850" pageHeight="1100" math="0" shadow="0" extFonts="Permanent Marker^https://fonts.googleapis.com/css?family=Permanent+Marker">
      <root>
        <mxCell id="0" />
        <mxCell id="1" parent="0" />
        <object label="Character" id="4P34MV8Z5anZ3GrLTMJF-1">
          <mxCell style="shape=table;startSize=30;container=1;collapsible=1;childLayout=tableLayout;fixedRows=1;rowLines=0;fontStyle=1;align=center;resizeLast=1;" vertex="1" parent="1">
            <mxGeometry x="31" y="470" width="360" height="180" as="geometry">
              <mxRectangle x="31" y="470" width="100" height="30" as="alternateBounds" />
            </mxGeometry>
          </mxCell>
        </object>
        <mxCell id="4P34MV8Z5anZ3GrLTMJF-2" value="" style="shape=tableRow;horizontal=0;startSize=0;swimlaneHead=0;swimlaneBody=0;fillColor=none;collapsible=0;dropTarget=0;points=[[0,0.5],[1,0.5]];portConstraint=eastwest;strokeColor=inherit;top=0;left=0;right=0;bottom=1;" vertex="1" parent="4P34MV8Z5anZ3GrLTMJF-1">
          <mxGeometry y="30" width="360" height="30" as="geometry" />
        </mxCell>
        <mxCell id="4P34MV8Z5anZ3GrLTMJF-3" value="PK" style="shape=partialRectangle;overflow=hidden;connectable=0;fillColor=none;strokeColor=inherit;top=0;left=0;bottom=0;right=0;fontStyle=1;" vertex="1" parent="4P34MV8Z5anZ3GrLTMJF-2">
          <mxGeometry width="30" height="30" as="geometry">
            <mxRectangle width="30" height="30" as="alternateBounds" />
          </mxGeometry>
        </mxCell>
        <mxCell id="4P34MV8Z5anZ3GrLTMJF-4" value="id UUID" style="shape=partialRectangle;overflow=hidden;connectable=0;fillColor=none;align=left;strokeColor=inherit;top=0;left=0;bottom=0;right=0;spacingLeft=6;fontStyle=5;" vertex="1" parent="4P34MV8Z5anZ3GrLTMJF-2">
          <mxGeometry x="30" width="330" height="30" as="geometry">
            <mxRectangle width="330" height="30" as="alternateBounds" />
          </mxGeometry>
        </mxCell>
        <mxCell id="4P34MV8Z5anZ3GrLTMJF-5" value="" style="shape=tableRow;horizontal=0;startSize=0;swimlaneHead=0;swimlaneBody=0;fillColor=none;collapsible=0;dropTarget=0;points=[[0,0.5],[1,0.5]];portConstraint=eastwest;strokeColor=inherit;top=0;left=0;right=0;bottom=0;" vertex="1" parent="4P34MV8Z5anZ3GrLTMJF-1">
          <mxGeometry y="60" width="360" height="30" as="geometry" />
        </mxCell>
        <mxCell id="4P34MV8Z5anZ3GrLTMJF-6" value="" style="shape=partialRectangle;overflow=hidden;connectable=0;fillColor=none;strokeColor=inherit;top=0;left=0;bottom=0;right=0;" vertex="1" parent="4P34MV8Z5anZ3GrLTMJF-5">
          <mxGeometry width="30" height="30" as="geometry">
            <mxRectangle width="30" height="30" as="alternateBounds" />
          </mxGeometry>
        </mxCell>
        <mxCell id="4P34MV8Z5anZ3GrLTMJF-7" value="name VARCHAR(255) NOT NULL" style="shape=partialRectangle;overflow=hidden;connectable=0;fillColor=none;align=left;strokeColor=inherit;top=0;left=0;bottom=0;right=0;spacingLeft=6;" vertex="1" parent="4P34MV8Z5anZ3GrLTMJF-5">
          <mxGeometry x="30" width="330" height="30" as="geometry">
            <mxRectangle width="330" height="30" as="alternateBounds" />
          </mxGeometry>
        </mxCell>
        <mxCell id="4P34MV8Z5anZ3GrLTMJF-8" value="" style="shape=tableRow;horizontal=0;startSize=0;swimlaneHead=0;swimlaneBody=0;fillColor=none;collapsible=0;dropTarget=0;points=[[0,0.5],[1,0.5]];portConstraint=eastwest;strokeColor=inherit;top=0;left=0;right=0;bottom=0;" vertex="1" parent="4P34MV8Z5anZ3GrLTMJF-1">
          <mxGeometry y="90" width="360" height="30" as="geometry" />
        </mxCell>
        <mxCell id="4P34MV8Z5anZ3GrLTMJF-9" value="" style="shape=partialRectangle;overflow=hidden;connectable=0;fillColor=none;strokeColor=inherit;top=0;left=0;bottom=0;right=0;" vertex="1" parent="4P34MV8Z5anZ3GrLTMJF-8">
          <mxGeometry width="30" height="30" as="geometry">
            <mxRectangle width="30" height="30" as="alternateBounds" />
          </mxGeometry>
        </mxCell>
        <mxCell id="4P34MV8Z5anZ3GrLTMJF-10" value="gender ENUM (&#39;male&#39;, &#39;female&#39;, &#39;other&#39;)" style="shape=partialRectangle;overflow=hidden;connectable=0;fillColor=none;align=left;strokeColor=inherit;top=0;left=0;bottom=0;right=0;spacingLeft=6;" vertex="1" parent="4P34MV8Z5anZ3GrLTMJF-8">
          <mxGeometry x="30" width="330" height="30" as="geometry">
            <mxRectangle width="330" height="30" as="alternateBounds" />
          </mxGeometry>
        </mxCell>
        <mxCell id="4P34MV8Z5anZ3GrLTMJF-11" value="" style="shape=tableRow;horizontal=0;startSize=0;swimlaneHead=0;swimlaneBody=0;fillColor=none;collapsible=0;dropTarget=0;points=[[0,0.5],[1,0.5]];portConstraint=eastwest;strokeColor=inherit;top=0;left=0;right=0;bottom=0;" vertex="1" parent="4P34MV8Z5anZ3GrLTMJF-1">
          <mxGeometry y="120" width="360" height="30" as="geometry" />
        </mxCell>
        <mxCell id="4P34MV8Z5anZ3GrLTMJF-12" value="" style="shape=partialRectangle;overflow=hidden;connectable=0;fillColor=none;strokeColor=inherit;top=0;left=0;bottom=0;right=0;" vertex="1" parent="4P34MV8Z5anZ3GrLTMJF-11">
          <mxGeometry width="30" height="30" as="geometry">
            <mxRectangle width="30" height="30" as="alternateBounds" />
          </mxGeometry>
        </mxCell>
        <mxCell id="4P34MV8Z5anZ3GrLTMJF-13" value="age INT" style="shape=partialRectangle;overflow=hidden;connectable=0;fillColor=none;align=left;strokeColor=inherit;top=0;left=0;bottom=0;right=0;spacingLeft=6;" vertex="1" parent="4P34MV8Z5anZ3GrLTMJF-11">
          <mxGeometry x="30" width="330" height="30" as="geometry">
            <mxRectangle width="330" height="30" as="alternateBounds" />
          </mxGeometry>
        </mxCell>
        <mxCell id="4P34MV8Z5anZ3GrLTMJF-14" value="" style="shape=tableRow;horizontal=0;startSize=0;swimlaneHead=0;swimlaneBody=0;fillColor=none;collapsible=0;dropTarget=0;points=[[0,0.5],[1,0.5]];portConstraint=eastwest;strokeColor=inherit;top=0;left=0;right=0;bottom=0;" vertex="1" parent="4P34MV8Z5anZ3GrLTMJF-1">
          <mxGeometry y="150" width="360" height="30" as="geometry" />
        </mxCell>
        <mxCell id="4P34MV8Z5anZ3GrLTMJF-15" value="" style="shape=partialRectangle;overflow=hidden;connectable=0;fillColor=none;strokeColor=inherit;top=0;left=0;bottom=0;right=0;" vertex="1" parent="4P34MV8Z5anZ3GrLTMJF-14">
          <mxGeometry width="30" height="30" as="geometry">
            <mxRectangle width="30" height="30" as="alternateBounds" />
          </mxGeometry>
        </mxCell>
        <mxCell id="4P34MV8Z5anZ3GrLTMJF-16" value="film_status BOOLEAN" style="shape=partialRectangle;overflow=hidden;connectable=0;fillColor=none;align=left;strokeColor=inherit;top=0;left=0;bottom=0;right=0;spacingLeft=6;" vertex="1" parent="4P34MV8Z5anZ3GrLTMJF-14">
          <mxGeometry x="30" width="330" height="30" as="geometry">
            <mxRectangle width="330" height="30" as="alternateBounds" />
          </mxGeometry>
        </mxCell>
        <mxCell id="4P34MV8Z5anZ3GrLTMJF-17" value="Known Accomplices" style="shape=table;startSize=30;container=1;collapsible=1;childLayout=tableLayout;fixedRows=1;rowLines=0;fontStyle=1;align=center;resizeLast=1;" vertex="1" parent="1">
          <mxGeometry x="460" y="340" width="320" height="90" as="geometry" />
        </mxCell>
        <mxCell id="4P34MV8Z5anZ3GrLTMJF-18" value="" style="shape=tableRow;horizontal=0;startSize=0;swimlaneHead=0;swimlaneBody=0;fillColor=none;collapsible=0;dropTarget=0;points=[[0,0.5],[1,0.5]];portConstraint=eastwest;strokeColor=inherit;top=0;left=0;right=0;bottom=0;" vertex="1" parent="4P34MV8Z5anZ3GrLTMJF-17">
          <mxGeometry y="30" width="320" height="30" as="geometry" />
        </mxCell>
        <mxCell id="4P34MV8Z5anZ3GrLTMJF-19" value="FK1" style="shape=partialRectangle;overflow=hidden;connectable=0;fillColor=none;strokeColor=inherit;top=0;left=0;bottom=0;right=0;" vertex="1" parent="4P34MV8Z5anZ3GrLTMJF-18">
          <mxGeometry width="30" height="30" as="geometry">
            <mxRectangle width="30" height="30" as="alternateBounds" />
          </mxGeometry>
        </mxCell>
        <mxCell id="4P34MV8Z5anZ3GrLTMJF-20" value="character_id UUID" style="shape=partialRectangle;overflow=hidden;connectable=0;fillColor=none;align=left;strokeColor=inherit;top=0;left=0;bottom=0;right=0;spacingLeft=6;" vertex="1" parent="4P34MV8Z5anZ3GrLTMJF-18">
          <mxGeometry x="30" width="290" height="30" as="geometry">
            <mxRectangle width="290" height="30" as="alternateBounds" />
          </mxGeometry>
        </mxCell>
        <mxCell id="4P34MV8Z5anZ3GrLTMJF-21" value="" style="shape=tableRow;horizontal=0;startSize=0;swimlaneHead=0;swimlaneBody=0;fillColor=none;collapsible=0;dropTarget=0;points=[[0,0.5],[1,0.5]];portConstraint=eastwest;strokeColor=inherit;top=0;left=0;right=0;bottom=0;" vertex="1" parent="4P34MV8Z5anZ3GrLTMJF-17">
          <mxGeometry y="60" width="320" height="30" as="geometry" />
        </mxCell>
        <mxCell id="4P34MV8Z5anZ3GrLTMJF-22" value="FK2" style="shape=partialRectangle;overflow=hidden;connectable=0;fillColor=none;strokeColor=inherit;top=0;left=0;bottom=0;right=0;" vertex="1" parent="4P34MV8Z5anZ3GrLTMJF-21">
          <mxGeometry width="30" height="30" as="geometry">
            <mxRectangle width="30" height="30" as="alternateBounds" />
          </mxGeometry>
        </mxCell>
        <mxCell id="4P34MV8Z5anZ3GrLTMJF-23" value="accomplice_id UUID" style="shape=partialRectangle;overflow=hidden;connectable=0;fillColor=none;align=left;strokeColor=inherit;top=0;left=0;bottom=0;right=0;spacingLeft=6;" vertex="1" parent="4P34MV8Z5anZ3GrLTMJF-21">
          <mxGeometry x="30" width="290" height="30" as="geometry">
            <mxRectangle width="290" height="30" as="alternateBounds" />
          </mxGeometry>
        </mxCell>
        <mxCell id="4P34MV8Z5anZ3GrLTMJF-30" value="Known Enemies" style="shape=table;startSize=30;container=1;collapsible=1;childLayout=tableLayout;fixedRows=1;rowLines=0;fontStyle=1;align=center;resizeLast=1;" vertex="1" parent="1">
          <mxGeometry x="470" y="580" width="320" height="90" as="geometry" />
        </mxCell>
        <mxCell id="4P34MV8Z5anZ3GrLTMJF-31" value="" style="shape=tableRow;horizontal=0;startSize=0;swimlaneHead=0;swimlaneBody=0;fillColor=none;collapsible=0;dropTarget=0;points=[[0,0.5],[1,0.5]];portConstraint=eastwest;strokeColor=inherit;top=0;left=0;right=0;bottom=0;" vertex="1" parent="4P34MV8Z5anZ3GrLTMJF-30">
          <mxGeometry y="30" width="320" height="30" as="geometry" />
        </mxCell>
        <mxCell id="4P34MV8Z5anZ3GrLTMJF-32" value="FK1" style="shape=partialRectangle;overflow=hidden;connectable=0;fillColor=none;strokeColor=inherit;top=0;left=0;bottom=0;right=0;" vertex="1" parent="4P34MV8Z5anZ3GrLTMJF-31">
          <mxGeometry width="30" height="30" as="geometry">
            <mxRectangle width="30" height="30" as="alternateBounds" />
          </mxGeometry>
        </mxCell>
        <mxCell id="4P34MV8Z5anZ3GrLTMJF-33" value="character_id UUID" style="shape=partialRectangle;overflow=hidden;connectable=0;fillColor=none;align=left;strokeColor=inherit;top=0;left=0;bottom=0;right=0;spacingLeft=6;" vertex="1" parent="4P34MV8Z5anZ3GrLTMJF-31">
          <mxGeometry x="30" width="290" height="30" as="geometry">
            <mxRectangle width="290" height="30" as="alternateBounds" />
          </mxGeometry>
        </mxCell>
        <mxCell id="4P34MV8Z5anZ3GrLTMJF-34" value="" style="shape=tableRow;horizontal=0;startSize=0;swimlaneHead=0;swimlaneBody=0;fillColor=none;collapsible=0;dropTarget=0;points=[[0,0.5],[1,0.5]];portConstraint=eastwest;strokeColor=inherit;top=0;left=0;right=0;bottom=0;" vertex="1" parent="4P34MV8Z5anZ3GrLTMJF-30">
          <mxGeometry y="60" width="320" height="30" as="geometry" />
        </mxCell>
        <mxCell id="4P34MV8Z5anZ3GrLTMJF-35" value="FK2" style="shape=partialRectangle;overflow=hidden;connectable=0;fillColor=none;strokeColor=inherit;top=0;left=0;bottom=0;right=0;" vertex="1" parent="4P34MV8Z5anZ3GrLTMJF-34">
          <mxGeometry width="30" height="30" as="geometry">
            <mxRectangle width="30" height="30" as="alternateBounds" />
          </mxGeometry>
        </mxCell>
        <mxCell id="4P34MV8Z5anZ3GrLTMJF-36" value="enemy_id UUID" style="shape=partialRectangle;overflow=hidden;connectable=0;fillColor=none;align=left;strokeColor=inherit;top=0;left=0;bottom=0;right=0;spacingLeft=6;" vertex="1" parent="4P34MV8Z5anZ3GrLTMJF-34">
          <mxGeometry x="30" width="290" height="30" as="geometry">
            <mxRectangle width="290" height="30" as="alternateBounds" />
          </mxGeometry>
        </mxCell>
        <mxCell id="4P34MV8Z5anZ3GrLTMJF-44" value="" style="edgeStyle=entityRelationEdgeStyle;endArrow=ERzeroToMany;startArrow=ERone;endFill=1;startFill=0;exitX=1;exitY=0.5;exitDx=0;exitDy=0;" edge="1" parent="1" source="4P34MV8Z5anZ3GrLTMJF-2" target="4P34MV8Z5anZ3GrLTMJF-18">
          <mxGeometry width="100" height="100" relative="1" as="geometry">
            <mxPoint x="390" y="355" as="sourcePoint" />
            <mxPoint x="470" y="385" as="targetPoint" />
          </mxGeometry>
        </mxCell>
        <mxCell id="4P34MV8Z5anZ3GrLTMJF-45" value="" style="edgeStyle=entityRelationEdgeStyle;endArrow=ERzeroToMany;startArrow=ERone;endFill=1;startFill=0;exitX=1;exitY=0.5;exitDx=0;exitDy=0;entryX=0;entryY=0.5;entryDx=0;entryDy=0;" edge="1" parent="1" source="4P34MV8Z5anZ3GrLTMJF-2" target="4P34MV8Z5anZ3GrLTMJF-21">
          <mxGeometry width="100" height="100" relative="1" as="geometry">
            <mxPoint x="390" y="705" as="sourcePoint" />
            <mxPoint x="460" y="605" as="targetPoint" />
          </mxGeometry>
        </mxCell>
        <mxCell id="4P34MV8Z5anZ3GrLTMJF-46" value="" style="edgeStyle=entityRelationEdgeStyle;endArrow=ERzeroToMany;startArrow=ERone;endFill=1;startFill=0;entryX=0;entryY=0.5;entryDx=0;entryDy=0;" edge="1" parent="1" source="4P34MV8Z5anZ3GrLTMJF-2" target="4P34MV8Z5anZ3GrLTMJF-31">
          <mxGeometry width="100" height="100" relative="1" as="geometry">
            <mxPoint x="380" y="700" as="sourcePoint" />
            <mxPoint x="460" y="635" as="targetPoint" />
          </mxGeometry>
        </mxCell>
        <mxCell id="4P34MV8Z5anZ3GrLTMJF-47" value="" style="edgeStyle=entityRelationEdgeStyle;endArrow=ERzeroToMany;startArrow=ERone;endFill=1;startFill=0;entryX=0;entryY=0.5;entryDx=0;entryDy=0;exitX=1;exitY=0.5;exitDx=0;exitDy=0;" edge="1" parent="1" source="4P34MV8Z5anZ3GrLTMJF-2" target="4P34MV8Z5anZ3GrLTMJF-34">
          <mxGeometry width="100" height="100" relative="1" as="geometry">
            <mxPoint x="380" y="700" as="sourcePoint" />
            <mxPoint x="460" y="755" as="targetPoint" />
          </mxGeometry>
        </mxCell>
      </root>
    </mxGraphModel>
  </diagram>
</mxfile>
